<svg width="28" height="28" viewBox="0 0 28 28" fill="none" xmlns="http://www.w3.org/2000/svg">
<path d="M14.1405 14.91C14.0588 14.8983 13.9538 14.8983 13.8605 14.91C11.8072 14.84 10.1738 13.16 10.1738 11.095C10.1738 8.98331 11.8772 7.26831 14.0005 7.26831C16.1122 7.26831 17.8272 8.98331 17.8272 11.095C17.8155 13.16 16.1938 14.84 14.1405 14.91Z" stroke="white" stroke-width="1.5" stroke-linecap="round" stroke-linejoin="round"/>
<path d="M21.8634 22.6099C19.7867 24.5116 17.0334 25.6666 14.0001 25.6666C10.9667 25.6666 8.21339 24.5116 6.13672 22.6099C6.25339 21.5133 6.95339 20.4399 8.20172 19.5999C11.3984 17.4766 16.6251 17.4766 19.7984 19.5999C21.0467 20.4399 21.7467 21.5133 21.8634 22.6099Z" stroke="white" stroke-width="1.5" stroke-linecap="round" stroke-linejoin="round"/>
<path d="M14.0007 25.6667C20.444 25.6667 25.6673 20.4434 25.6673 14C25.6673 7.55672 20.444 2.33337 14.0007 2.33337C7.55733 2.33337 2.33398 7.55672 2.33398 14C2.33398 20.4434 7.55733 25.6667 14.0007 25.6667Z" stroke="white" stroke-width="1.5" stroke-linecap="round" stroke-linejoin="round"/>
</svg>
